<?xml version="1.0" encoding="utf-8"?>
<!-- Generator: Adobe Illustrator 19.0.1, SVG Export Plug-In . SVG Version: 6.00 Build 0)  -->
<svg version="1.1" id="airlines_1_" xmlns="http://www.w3.org/2000/svg" xmlns:xlink="http://www.w3.org/1999/xlink" x="0px"
	 y="0px" viewBox="0 0 128 128" style="enable-background:new 0 0 128 128;" xml:space="preserve">
<style type="text/css">
	.st0{display:none;fill:#444444;}
	.st1{display:none;}
	.st2{display:inline;fill-rule:evenodd;clip-rule:evenodd;fill:#B7B4B4;}
	.st3{display:inline;fill:#444444;}
	.st4{fill:#444444;}
	.st5{fill:#FFFFFF;}
	.st6{display:inline;fill-rule:evenodd;clip-rule:evenodd;fill:#444444;}
</style>
<g id="row3_1_">
	<path id="ticket_1_" class="st0" d="M127.5,58l-26.6-46.6c-1.1-1.9-3.5-2.6-5.5-1.5l-68,39.7L58,103.3l68-39.7
		C127.9,62.4,128.6,60,127.5,58z M35.3,52.8l51.9-30.3l2.7,4.7L38,57.4L35.3,52.8z M40.6,62.1l28.8-16.8l2.7,4.7L43.3,66.8
		L40.6,62.1z M47.9,74.9l-2.7-4.7l45-26.3l2.7,4.7L47.9,74.9z M79.5,84.5l-6.7-11.7l4.6-2.7l6.7,11.7L79.5,84.5z M86.4,80.4
		l-6.7-11.7l2.3-1.3l6.7,11.7L86.4,80.4z M91.1,77.7l-6.7-11.7l2.3-1.3l6.7,11.7L91.1,77.7z M95.7,75L89,63.4l2.3-1.3L98,73.7
		L95.7,75z M100.3,72.4l-6.7-11.7l2.3-1.3l6.7,11.7L100.3,72.4z M104.9,69.7L98.2,58l4.6-2.7l6.7,11.7L104.9,69.7z M111.8,65.6
		L105.2,54l2.3-1.3l6.7,11.7L111.8,65.6z M115.3,63.6l-6.7-11.7l4.6-2.7l6.7,11.7L115.3,63.6z M2,64.4C0.1,65.6-0.6,68,0.5,70
		l26.6,46.6c1.1,1.9,3.5,2.6,5.5,1.5l23.1-13.5L25.1,51L2,64.4z M18,92.4l-1.3-2.3l12.7-7.4l1.3,2.3L18,92.4z M35.4,74.5L14.6,86.6
		l-1.3-2.3l20.8-12.1L35.4,74.5z M32.1,68.7L11.3,80.8L10,78.4l20.8-12.1L32.1,68.7z M28.7,62.8L8,74.9l-1.3-2.3l20.8-12.1
		L28.7,62.8z"/>
	<g id="radar_1_" class="st1">
		<path id="sign" class="st2" d="M102.2,23c0,0,7.4,6,11.8,13c3.3,5.2,4,12,4,12L64.6,66.3l-2.6-3L102.2,23z"/>
		<path id="icon" class="st3" d="M64,0C28.7,0,0,28.7,0,64s28.7,64,64,64c35.3,0,64-28.7,64-64S99.3,0,64,0z M103.6,24.4L103.6,24.4
			L103.6,24.4z M64,120C33.1,120,8,94.9,8,64S33.1,8,64,8c14.7,0,28.2,5.7,38.2,15l-5.7,5.7c-6.3-5.8-14.1-9.9-22.8-11.7
			c-0.8-1.8-2.6-3.1-4.7-3.1c-1.7,0-3.2,0.8-4.1,2.1c-0.3,0-0.6,0-0.9,0c-26.5,0-48,21.5-48,48c0,24.7,18.7,45,42.7,47.7
			c0.9,1.4,2.5,2.4,4.3,2.4c1.8,0,3.3-0.9,4.2-2.2c25-1.7,44.8-22.5,44.8-47.9c0-12.5-4.8-23.9-12.7-32.5l5.7-5.7
			c9.3,10,15,23.4,15,38.2C120,94.9,94.9,120,64,120z M37.8,58.7c2-12.1,12.5-21.3,25.2-21.3c6.9,0,13.1,2.7,17.7,7.1L66.2,59
			c-0.9-0.7-2-1.1-3.2-1.1c-2.8,0-5.1,2.3-5.1,5.1c0,2.8,2.3,5.1,5.1,5.1c2.8,0,5.1-2.3,5.1-5.1c0-0.1,0-0.2,0-0.3l15.2-15.2
			c3.3,4.3,5.3,9.7,5.3,15.5c0,14.1-11.5,25.6-25.6,25.6c-12.7,0-23.2-9.2-25.2-21.3c1.4-0.9,2.3-2.5,2.3-4.3
			C40.1,61.2,39.2,59.6,37.8,58.7z M83.1,42.1C77.9,37.1,70.8,34,63,34c-14.3,0-26.1,10.3-28.5,23.9c-2.6,0.3-4.6,2.4-4.6,5.1
			c0,2.6,2,4.8,4.6,5.1C36.9,81.7,48.7,92,63,92c16,0,29-13,29-29c0-6.8-2.3-13-6.2-17.9l10.7-10.7C103.6,42.2,108,52.6,108,64
			c0,23-17.6,41.8-40,43.8c-0.5-2.2-2.5-3.9-5-3.9c-2.3,0-4.3,1.6-4.9,3.7C36.6,104.7,20,86.3,20,64c0-24.3,19.7-44,44-44
			c0.5,2.3,2.5,4.1,5,4.1c2.1,0,3.9-1.2,4.7-3c7.6,1.7,14.4,5.4,20,10.4L83.1,42.1z"/>
	</g>
	<g id="passport_1_">
		<path id="_x32_" class="st4" d="M109.4,0H18.6c-3.4,0-6.2,2.8-6.2,6.2v115.6c0,3.4,2.8,6.2,6.2,6.2h90.8c3.4,0,6.2-2.8,6.2-6.2
			V6.2C115.6,2.8,112.8,0,109.4,0z M64,80.5c-18.2,0-33-14.8-33-33c0-18.2,14.8-33,33-33c18.2,0,33,14.8,33,33
			C97,65.7,82.2,80.5,64,80.5z M51.1,59.3h11.9V48.6H50.2C50.3,52.6,50.6,56.1,51.1,59.3z M38.7,61.4c3.3,6,8.7,10.7,15.2,13.1
			c-1.5-2.7-3.4-7-4.6-13.1H38.7z M50.2,46.4h12.9V35.7h-12C50.6,38.8,50.3,42.4,50.2,46.4z M48.1,48.6h-13
			c0.1,3.8,1.1,7.4,2.6,10.7H49C48.5,56.1,48.1,52.6,48.1,48.6z M53.8,20.4c-6.5,2.4-11.9,7.1-15.2,13.1h10.7
			C50.5,27.5,52.3,23.2,53.8,20.4z M51.5,33.5h11.6v-15c-2.3,0.1-4.5,0.4-6.6,1C54.9,22.3,52.8,26.8,51.5,33.5z M48.9,35.7H37.6
			c-1.5,3.3-2.3,6.9-2.5,10.7h13C48.1,42.4,48.4,38.8,48.9,35.7z M56.5,75.4c2.1,0.6,4.3,0.9,6.5,1v-15H51.5
			C52.8,68.2,54.9,72.8,56.5,75.4z M80.2,46.4h12.7c-0.1-3.8-1-7.4-2.5-10.7H79.3C79.8,38.8,80.2,42.4,80.2,46.4z M74.4,74.5
			C80.8,72,86,67.4,89.3,61.4H78.9C77.8,67.5,75.9,71.8,74.4,74.5z M79.3,59.3h11c1.5-3.3,2.4-6.9,2.6-10.7H80.2
			C80.1,52.6,79.8,56.1,79.3,59.3z M74.5,20.5c1.5,2.8,3.3,7,4.5,13h10.4C86,27.6,80.8,23,74.5,20.5z M65.2,61.4v14.9
			c2.3-0.1,4.5-0.4,6.5-1c1.6-2.7,3.7-7.2,5-13.9H65.2z M71.8,19.6c-2.1-0.6-4.3-1-6.6-1.1v15h11.6C75.5,26.8,73.4,22.3,71.8,19.6z
			 M77.2,35.7h-12v10.7h12.9C78,42.4,77.7,38.8,77.2,35.7z M78,48.6H65.2v10.7h11.9C77.6,56.1,78,52.6,78,48.6z"/>
		<path id="_x31_" class="st5" d="M44.8,95c-1-0.9-2.5-1.4-4.2-1.4h-7.7v17.8h3.7v-6.4h3.7c1.9,0,3.4-0.4,4.5-1.3
			c1-0.9,1.6-2.4,1.6-4.5C46.4,97.4,45.9,96,44.8,95z M42,101.4c-0.5,0.4-1.1,0.6-2,0.6h-3.4v-5.2H40c0.8,0,1.5,0.2,2,0.6
			c0.5,0.4,0.7,1.1,0.7,2S42.5,100.9,42,101.4z M52.7,93.7l-6.4,17.8h3.9l1.2-3.7H58l1.2,3.7h4l-6.3-17.8H52.7z M52.4,104.7l2.3-7
			l2.3,7H52.4z M74.7,101.3l-3.1-0.7c-1.2-0.3-2-0.5-2.4-0.7c-0.6-0.3-0.9-0.8-0.9-1.4c0-0.7,0.3-1.2,0.9-1.6
			c0.6-0.4,1.4-0.6,2.4-0.6c0.9,0,1.6,0.1,2.2,0.4c0.9,0.5,1.4,1.2,1.4,2.3h3.6c-0.1-1.9-0.8-3.3-2.1-4.3c-1.3-1-3-1.5-4.9-1.5
			c-2.3,0-4,0.5-5.2,1.6c-1.2,1.1-1.8,2.4-1.8,4c0,1.8,0.6,3,1.8,3.9c0.7,0.5,2,0.9,3.9,1.4l1.9,0.4c1.1,0.2,2,0.5,2.5,0.8
			c0.5,0.3,0.8,0.8,0.8,1.4c0,1-0.5,1.7-1.6,2.1c-0.6,0.2-1.3,0.3-2.2,0.3c-1.5,0-2.6-0.4-3.2-1.1c-0.3-0.4-0.6-1-0.7-1.8h-3.6
			c0,1.9,0.7,3.3,2,4.4c1.3,1.1,3.2,1.6,5.5,1.6c2.3,0,4.1-0.5,5.3-1.6c1.3-1.1,1.9-2.4,1.9-4.1c0-1.6-0.5-2.8-1.6-3.6
			C77.1,102.1,76,101.7,74.7,101.3z M94.3,102.6c-0.7-0.5-1.7-1-3.1-1.3l-3.1-0.7c-1.2-0.3-2-0.5-2.4-0.7c-0.6-0.3-0.9-0.8-0.9-1.4
			c0-0.7,0.3-1.2,0.9-1.6c0.6-0.4,1.4-0.6,2.4-0.6c0.9,0,1.6,0.1,2.2,0.4c0.9,0.5,1.4,1.2,1.4,2.3h3.6c-0.1-1.9-0.8-3.3-2.1-4.3
			c-1.3-1-3-1.5-4.9-1.5c-2.3,0-4,0.5-5.2,1.6c-1.2,1.1-1.8,2.4-1.8,4c0,1.8,0.6,3,1.8,3.9c0.7,0.5,2,0.9,3.9,1.4l1.9,0.4
			c1.1,0.2,2,0.5,2.5,0.8c0.5,0.3,0.8,0.8,0.8,1.4c0,1-0.5,1.7-1.6,2.1c-0.6,0.2-1.3,0.3-2.2,0.3c-1.5,0-2.6-0.4-3.2-1.1
			c-0.3-0.4-0.6-1-0.7-1.8h-3.6c0,1.9,0.7,3.3,2,4.4c1.3,1.1,3.2,1.6,5.5,1.6c2.3,0,4.1-0.5,5.3-1.6c1.3-1.1,1.9-2.4,1.9-4.1
			C95.9,104.7,95.3,103.5,94.3,102.6z"/>
	</g>
	<path id="inspector_1_" class="st0" d="M16.4,110.9c0,2.7,2.1,4.8,4.8,4.8h44.7c2.6,0,4.8-2.2,4.8-4.8V99.3H16.4V110.9z M80.4,22.2
		v8.4c0,8,6.6,14.5,14.8,14.5c8.2,0,14.8-6.5,14.8-14.5v-8.4c0,0-6.9,3.3-14.3,3.3C88.3,25.4,80.4,22.2,80.4,22.2z M39.1,97.8
		c4.8,3.1,10.4-3.7,10.4-3.7l24.4-29.2v27.9L105,48.4H70.6L38.1,88.5C38.1,88.5,33.3,94.1,39.1,97.8z M123.3,48.4h-8.9L83.7,92.7
		h27.9l0,8.1l-37.7,0.1v14.8h41l0-66.2h1.6v49.7H128V53.1C128,50.5,125.9,48.4,123.3,48.4z M4.8,46.8c-2.7,0-4.8,2.1-4.8,4.6v43.3
		c0,2.5,2.2,4.6,4.8,4.6h11.6V46.8H4.8z M96.5,23.8c7.4,0,14.1-3.8,14.1-3.8l5.9-7.7H73.8l7.5,7.7C81.4,20,89.2,23.8,96.5,23.8z"/>
	<path id="currency_x5F_converter_1_" class="st0" d="M37.9,87.9c-0.3-0.4-0.7-0.7-1.2-1c-0.4-0.3-0.9-0.5-1.3-0.7
		c-0.5-0.2-0.9-0.4-1.3-0.6c-0.4-0.2-0.8-0.4-1.2-0.6c-0.3-0.2-0.6-0.5-0.8-0.8c-0.2-0.3-0.3-0.6-0.3-1c0-0.3,0-0.5,0.1-0.7
		c0.1-0.2,0.2-0.4,0.4-0.6c0.2-0.2,0.4-0.3,0.7-0.4c0.3-0.1,0.6-0.1,1-0.1c0.5,0,0.9,0.1,1.3,0.2c0.4,0.1,0.8,0.3,1.1,0.4
		c0.3,0.1,0.6,0.3,0.8,0.4c0.2,0.1,0.4,0.2,0.5,0.2s0.2,0,0.2-0.1c0.1-0.1,0.1-0.1,0.1-0.3c0-0.1,0.1-0.3,0.1-0.4c0-0.2,0-0.4,0-0.7
		c0-0.2,0-0.4,0-0.6c0-0.2,0-0.3,0-0.4c0-0.1,0-0.2-0.1-0.3c0-0.1-0.1-0.1-0.2-0.2c-0.1-0.1-0.3-0.2-0.5-0.3
		c-0.3-0.1-0.6-0.3-0.9-0.4c-0.4-0.1-0.7-0.2-1.1-0.3c-0.1,0-0.2,0-0.2,0v-2.2h-2.1v2.2c-0.4,0.1-0.8,0.1-1.1,0.2
		c-0.7,0.2-1.3,0.5-1.8,0.9c-0.5,0.4-0.9,0.9-1.2,1.6c-0.3,0.6-0.5,1.4-0.5,2.2c0,0.7,0.1,1.4,0.3,1.9c0.2,0.5,0.5,1,0.8,1.4
		c0.3,0.4,0.7,0.7,1.2,1c0.4,0.3,0.9,0.5,1.3,0.7c0.5,0.2,0.9,0.4,1.3,0.6c0.4,0.2,0.8,0.4,1.2,0.6c0.3,0.2,0.6,0.5,0.8,0.8
		c0.2,0.3,0.3,0.6,0.3,1c0,0.3-0.1,0.7-0.2,0.9c-0.1,0.3-0.3,0.5-0.5,0.7c-0.2,0.2-0.5,0.3-0.8,0.4c-0.3,0.1-0.7,0.2-1.1,0.2
		c-0.6,0-1.2-0.1-1.7-0.2c-0.5-0.1-0.9-0.3-1.3-0.5c-0.4-0.2-0.6-0.3-0.9-0.5c-0.2-0.1-0.4-0.2-0.5-0.2c-0.1,0-0.2,0-0.2,0.1
		c-0.1,0-0.1,0.1-0.2,0.3c0,0.1-0.1,0.3-0.1,0.5c0,0.2,0,0.4,0,0.7c0,0.4,0,0.7,0.1,1c0,0.2,0.1,0.4,0.2,0.5
		c0.1,0.1,0.3,0.2,0.6,0.4c0.3,0.2,0.6,0.3,1,0.4c0.4,0.1,0.8,0.3,1.3,0.4c0.5,0.1,1.1,0.1,1.6,0.1c0,0,0.1,0,0.1,0v2.1h2.1v-2.4
		c0.1,0,0.2,0,0.3-0.1c0.8-0.2,1.4-0.6,2-1c0.6-0.5,1-1,1.4-1.7c0.3-0.7,0.5-1.5,0.5-2.4c0-0.7-0.1-1.3-0.3-1.8
		C38.5,88.7,38.3,88.3,37.9,87.9z M44.1,87.6c0,7.1-4.7,12.9-10.5,12.9H61V74.7H33.5C39.3,74.7,44.1,80.5,44.1,87.6z M23,87.6
		c0-7.1,4.7-12.9,10.5-12.9H6.1v25.9h27.4C27.7,100.6,23,94.8,23,87.6z M105,40.4c0,7.1-4.7,12.9-10.5,12.9h27.4V27.4H94.5
		C100.3,27.4,105,33.2,105,40.4z M61,21.3v38.1h67V21.3H61z M123.8,55.2H65.1V25.4h58.7L123.8,55.2z M83.9,40.4
		c0-7.1,4.7-12.9,10.5-12.9H67v25.9h27.4C88.7,53.3,83.9,47.5,83.9,40.4z M0,106.7h67V68.6H0V106.7z M4.2,72.7h58.7l0,29.8H4.2V72.7
		z M91.2,69L70.1,84.8l21.1,15.8c0,0-0.3-5.6,0-8.9c13.5-1.1,19.5-11.3,23.1-19.7V67c-7.1,5.8-9.9,11.9-23.1,11.8
		C91.2,75.6,91.2,69,91.2,69z M38.3,54.4l21.1-15.8L38.3,22.9c0,0,0.3,5.6,0,8.9c-13.5,1.1-19.5,11.3-23.1,19.7v4.9
		c7.1-5.8,9.9-11.9,23.1-11.8C38.3,47.8,38.3,54.4,38.3,54.4z M86.8,40.4h1.3v1.8h-1.3v2.4c0,0,0.1,0,1.7,0c0,5.3,10.6,5.8,10.6,5.8
		v-3.8c0,0-2.6,0.7-4.7,0.5c-2-0.2-2.5-2.9-2.5-2.9h5.8l0-1.9c0,0-4,0-5.9,0c0-0.1,0-1.4,0-1.8h5.9v-2.1c0,0-3.5,0.2-5.5,0v-0.5
		c0.1-1.1,1.6-2.8,3.4-2.9c1.3-0.1,3,0.6,3,0.6l0.3-3.5c0,0-10.6,0.2-10.6,6.2c-0.9,0-1.7,0-1.7,0V40.4z"/>
</g>
<g id="row_2_1_" class="st1">
	<path id="luggage_1_" class="st3" d="M72.6,68.3c1.3,0,1.7,0,1.7,0v-8.6c0-2.9-2.3-5.2-5.2-5.2h-8.6c0,0,0,0.9,0,1.7
		C60.5,62.9,66,68.3,72.6,68.3z M15.6,56.2c0-0.8,0-1.7,0-1.7H6.9c-2.9,0-5.2,2.3-5.2,5.2v8.6c0,0,0.4,0,1.7,0
		C10.1,68.3,15.6,62.9,15.6,56.2z M60.5,104.6c0,0.8,0,1.7,0,1.7h8.6c2.9,0,5.2-2.3,5.2-5.2v-8.6c0,0-0.4,0-1.7,0
		C66,92.5,60.5,98,60.5,104.6z M128,35.5c0-15.3-12.4-27.7-27.7-27.7C85,7.8,72.6,20.2,72.6,35.5c0,13.5,9.7,24.7,22.5,27.2v47.2H0
		v10.4h112.4v-10.4h-6.9V62.6C118.3,60.2,128,49,128,35.5z M100.3,57.9c-12.4,0-22.5-10.1-22.5-22.5C77.8,23,87.9,13,100.3,13
		c12.4,0,22.5,10.1,22.5,22.5C122.8,47.9,112.7,57.9,100.3,57.9z M19,104.6c0,0.9,0,1.7,0,1.7h38.1c0,0,0-0.9,0-1.7
		c0-8.6,7-15.6,15.6-15.6c1.4,0,1.7,0,1.7,0V71.8c0,0-0.3,0-1.7,0c-8.6,0-15.6-7-15.6-15.6c0-0.9,0-1.7,0-1.7h-5.2v-5.2
		c0-2.9-2.3-5.2-5.2-5.2H29.4c-2.9,0-5.2,2.3-5.2,5.2v5.2H19c0,0,0,0.9,0,1.7c0,8.6-7,15.6-15.6,15.6c-1.4,0-1.7,0-1.7,0v17.3
		c0,0,0.3,0,1.7,0C12.1,89.1,19,96.1,19,104.6z M52.4,80.8l4.5,11.3l-17.7,7l-4.5-11.3L52.4,80.8z M27.7,51c0-1.9,1.5-3.5,3.5-3.5
		H45c1.9,0,3.5,1.5,3.5,3.5v3.5H27.7V51z M29.4,63.1c3.8,0,6.9,3.1,6.9,6.9S33.2,77,29.4,77s-6.9-3.1-6.9-6.9S25.6,63.1,29.4,63.1z
		 M6.9,106.4h8.6c0,0,0-0.9,0-1.7c0-6.7-5.4-12.1-12.1-12.1c-1.3,0-1.7,0-1.7,0v8.6C1.7,104.1,4.1,106.4,6.9,106.4z M100.3,16.4
		c0,0-2.9,14.5-3.8,15.5c-0.9,0.9-1.4,2.2-1.4,3.5c0,2.9,2.3,5.2,5.2,5.2c2.9,0,5.2-2.3,5.2-5.2c0-1.4-0.6-2.7-1.5-3.6
		C103.1,30.9,100.3,16.4,100.3,16.4z"/>
	<path id="airhostess_1_" class="st3" d="M49.1,66.4c6.9,7.1,22,7.5,29.1,0c9.5-9.9,28.3,6.2,16.8-32.5c-2.9-9.8-10-14-10-14
		s-2.7-1.9-8.2-2.2c-4.1-0.3-11,0.2-11,0.2s1.3,2.3,0.9,5.1c-0.3,2.6-0.4,5.4,0.2,7c1.3,3.2,16,8,16,8v14c-0.9,21.2-36.6,22.9-38,0
		c0,0-1.7-8.1,2-14c3-4.6,10.7-6.8,16-10c5.8-3.5,2-10,2-10s-8.5-0.2-11.4-0.2C47.1,17.9,43,20,43,20s-6.5,7.3-10,18
		C22.9,68.5,41.6,58.7,49.1,66.4z M85,18L81,2c0,0-8.2-2-18-2C51.2,0,47,2,47,2l-4,16c0,0,2.1-2,20.2-2C81.4,16,85,18,85,18z
		 M80.4,64.7c0,0,17.4,20.3,11.9,24.3C87.1,92.8,64,77.3,64,77.3s-23.9,16-28.3,11.8c-4.2-4,11.9-23.8,11.9-23.8S9,82.6,9,92v36h110
		V92C119,82.1,80.4,64.7,80.4,64.7z M64,122c-2.8,0-5-2.2-5-5c0-2.8,2.2-5,5-5c2.8,0,5,2.2,5,5C69,119.8,66.8,122,64,122z M64,108
		c-2.8,0-5-2.2-5-5c0-2.8,2.2-5,5-5c2.8,0,5,2.2,5,5C69,105.8,66.8,108,64,108z M64,94c-2.8,0-5-2.2-5-5c0-2.8,2.2-5,5-5
		c2.8,0,5,2.2,5,5C69,91.8,66.8,94,64,94z M109,106H85v-6h24V106z"/>
	<path id="scanning_1_" class="st3" d="M14,0v128h14V22h72v106h14V0H14z M46,16c-3.3,0-6-2.7-6-6c0-3.3,2.7-6,6-6c3.3,0,6,2.7,6,6
		C52,13.3,49.3,16,46,16z M64,16c-3.3,0-6-2.7-6-6c0-3.3,2.7-6,6-6c3.3,0,6,2.7,6,6C70,13.3,67.3,16,64,16z M82,16c-3.3,0-6-2.7-6-6
		c0-3.3,2.7-6,6-6c3.3,0,6,2.7,6,6C88,13.3,85.3,16,82,16z M74,39c0-6.1-4.9-11-11-11c-6.1,0-11,4.9-11,11c0,6.1,4.9,11,11,11
		C69.1,50,74,45.1,74,39z M42.2,53.1l0.2,41.4h8l0-31.5h1.7l0.5,63.1l8.4,0.1L61.2,90h6l0.2,36.2l8.3,0.1V63h1.9l0,31.5h8l0-41.4
		H42.2z"/>
	<path id="seat_1_" class="st3" d="M90.4,47c7.8,0,14.1-6.2,14.1-13.9V13.9C104.5,6.2,98.2,0,90.4,0S76.3,6.2,76.3,13.9V33
		C76.3,40.7,82.6,47,90.4,47z M79.9,13.9c0-5.8,4.7-10.4,10.6-10.4c5.8,0,10.6,4.7,10.6,10.4V33c0,5.8-4.7,10.4-10.6,10.4
		c-5.8,0-10.6-4.7-10.6-10.4V13.9z M54.1,31.1c7.1,0,12.8-5.6,12.8-12.5S61.1,6,54.1,6C47,6,41.3,11.6,41.3,18.6S47,31.1,54.1,31.1z
		 M37.8,35l3.3-3.7L37,0H19.9l0.3,38.3l15.4,69.6L28.3,128H43l6.3-21h16.8l8.4,21h12.6l-8.4-21h8.4V94.4H49.3L37.8,35z M98.1,73.5
		c-5.6,0-23.2,0-23.2,0s-5-24.2-5.6-29.1c-0.3-2.5-2-10.8-11.8-10.8c-6.1,0-12.4,3.3-12.4,11.4c0-0.7,8,45.2,8,45.2h40.8l0.1,29.2
		c0,0,1.3,6.5,6.6,6.5c5.3,0,7.5-6.5,7.5-6.5s0-23.2,0-37.7C108.1,78.6,103.7,73.5,98.1,73.5z"/>
	<path id="pilot_1_" class="st3" d="M64.2,16C82.4,16,90,20,90,20s3.1-3.1,6-6c1.9-1.9-15.1-14-32-14C47.9,0,32,11.4,32,14
		c5,3.8,5.6,4.2,8,6C44.3,19.3,46.1,16,64.2,16z M58.3,8h11.4C71,8,72,8.9,72,10c0,1.1-1,2-2.3,2H58.3C57,12,56,11.1,56,10
		C56,8.9,57,8,58.3,8z M54,66l8,10l-6,4l8,32l10-32l-6-4l8-10H54z M84,66l-20,58L48,66c0,0-44,16.1-44,26v36h120V92
		C124,82.1,84,66,84,66z M88,42c0,0,4-9.3,4-14c0-3.4-4-0.3-4-2.3c0-0.8,0-3.7,0-3.7s-12.3-2-23.8-2C47.9,20,42,22,42,22
		s0,2.6,0,3.7c0,2-4-1.1-4,2.3c0,4.7,4,14,4,14c0,14.3,19.2,21.1,23,21.1C68.8,63.1,88,53,88,42z M65,58c-2.5,0-19-4.4-19-16
		c0,0-1-9.2,0.1-14.6C50.8,31,58.3,36,64,36c8.8,0,16.2-7,19.7-11.1C84.8,28.1,84,42,84,42C84,49.5,67.5,58,65,58z"/>
</g>
<g id="row1_1_" class="st1">
	<path id="control_x5F_tower_1_" class="st3" d="M19.3,18.9c0,6.3,3.8,11.3,9,13.4c0-1.2,0-2.1,0-3.5c-2.8-2.3-5.5-5-5.5-10
		c0.1-4.9,2.9-8.5,5.4-10.5c0-2.8,0-1.6,0-3C23.2,7.6,19.3,12.6,19.3,18.9z M25.9,33.7C20.5,31,17,25.4,17,18.9
		c0-6.5,3.4-12.1,8.9-14.8c0-2.1,0-1.6,0-4c-7.5,2.9-12.6,10.3-12.6,18.9c0,8.6,5.1,15.9,12.6,18.9C25.9,33.2,25.9,38,25.9,33.7z
		 M41.4,128h45.4V91.2H41.4V128z M99,18.8c0,1.9-1.8,4.4-4.3,4.7c0,1.3,0,1-0.1,3.5c3.9,0,7.8-3.7,7.8-8.2c0-4.5-3.9-8.5-8.2-8.2
		c0,2.6,0.1,1.1,0.1,2.8C96.8,14.1,99,17,99,18.8z M33.3,14.1c0-1.3,0-1,0.1-3.5c-3.9,0-7.8,3.7-7.8,8.2c0,4.5,3.9,8.5,8.2,8.2
		c0-2.6-0.1-1.1-0.1-2.8c-2.5-0.6-4.7-3.5-4.7-5.4C29,17,30.9,14.4,33.3,14.1z M98.1,56.3H83.4v12.8h9.4L98.1,56.3z M105.1,18.9
		c-0.1,4.9-2.9,8.5-5.4,10.5c0,2.8,0,1.6,0,3c5.2-2.2,9-7.1,9-13.4c0-6.3-3.8-11.3-9-13.4c0,1.2,0,2.1,0,3.5
		C102.4,11.2,105.2,13.9,105.1,18.9z M87.1,10.3h-5.5v33.1h-5.5V17.6h-5.5v25.8h-7.3V4.8h-5.5v38.6h-7.4V14h-5.5v29.5h-22v7.4h82.8
		v-7.4H87.1V10.3z M39.4,89.4h49.4l16.7-36.8H22.7L39.4,89.4z M94.7,71H33.5l-7.1-16.6h75.4L94.7,71z M35.3,69.1h9.4V56.3H30.1
		L35.3,69.1z M81.6,56.3H65v12.8h16.5V56.3z M63.2,56.3H46.7v12.8h16.5V56.3z M102.1,0c0,4.5,0-0.3,0,4c5.5,2.7,8.9,8.3,8.9,14.8
		c0,6.5-3.4,12.1-8.9,14.8c0,2.1,0,1.6,0,4c7.5-2.9,12.6-10.3,12.6-18.9C114.7,10.3,109.6,2.9,102.1,0z"/>
	<path id="brief_x5F_case_2_" class="st6" d="M117.8,121.6H97.3V26.9h20.5c5.7,0,10.2,4.5,10.2,10v74.7
		C128,117.1,123.4,121.6,117.8,121.6z M35.9,26.5L35.9,26.5v-10c0-5.5,4.6-10,10.2-10H82c5.7,0,10.2,4.5,10.2,10v10v95.1H35.9V26.5z
		 M46.1,26.5H82c0,0,0-2.2,0-5c0-2.8-2.3-5-5.1-5H51.2c-2.8,0-5.1,2.2-5.1,5C46.1,24.2,46.1,26.5,46.1,26.5z M0,111.6V36.9
		c0-5.5,4.6-10,10.2-10h20.5v94.7H10.2C4.6,121.6,0,117.1,0,111.6z"/>
	<path id="XMLID_1_" class="st6" d="M57.8,58.8L36.4,80.3l-20-0.6l-9,9l21.3,10.3l0.7,0.7l10.3,21.5l9-9l-0.6-20.1l21.4-21.5
		l12.3,24l-3.8,4.7c-2.9,2.9-4.2,6.2-1.4,9c2.8,2.9,6.1,1.5,9-1.4l1.7-1.7L99,128l11.1-11.1l-6.6-26l8.5-7.6c2.9-2.9,2.9-7.5,0-10.4
		c-2.8-2.9-7.5-2.9-10.3,0l-1.8,1.7L93,46.9l31.8-32c0,0,6.7-5.8,0.7-11.8c-7.1-7.1-12.4,0-12.4,0l-31.8,32l-28.3-7.5l1.7-1.8
		c2.9-2.9,2.9-7.5,0-10.4c-2.8-2.9-7.5-2.8-10.3,0L36.9,24l-25.9-6.7L0,28.5l22.7,11.7L21,41.9c-2.9,2.9-4.2,6.2-1.4,9
		c2.8,2.9,6.1,1.5,9-1.4l4.7-3.8L57.8,58.8z"/>
	<path id="seat_x5F_belt_1_" class="st3" d="M103.1,55.7v-5c0-1.8-1.5-3.3-3.3-3.3H84.7l-6.1,6.6h-7.1c-1.8,0-3.3,1.5-3.3,3.3v13.2
		c0,1.8,1.5,3.3,3.3,3.3h7.1l6.1,6.6h15.2c1.8,0,3.3-1.5,3.3-3.3v-5H128V55.7H103.1z M81,70.4l-8.1,0c-1.1,0-2-0.8-2-1.8v-9.2
		c0-1,0.9-1.8,2-1.8l8.1,0V70.4z M55.3,47.4H30.4c-3.1,0-5.5,2.5-5.5,5.5v2.8H0v16.6h24.9V75c0,3,2.5,5.5,5.5,5.5h24.9
		c3.1,0,5.5-2.5,5.5-5.5V53C60.8,49.9,58.3,47.4,55.3,47.4z M58,74.1c0,2.5-1.1,3.7-3.7,3.7h-23c-2.5,0-3.7-1.1-3.7-3.7V53.9
		c0-2.5,1.1-3.7,3.7-3.7h23c2.5,0,3.7,1.1,3.7,3.7V74.1z"/>
	<path id="conveyor_x5F_belt_1_" class="st3" d="M27.2,49.9c-4.9,0-8.9,4-8.9,8.9s4,8.9,8.9,8.9s8.9-4,8.9-8.9S32.1,49.9,27.2,49.9z
		 M117.5,87.2c-0.1-0.8-0.3-1.6-0.6-2.4l1.5-0.8l-1.3-2.3l-1.5,0.9c-0.5-0.6-1.1-1.2-1.8-1.7l0.9-1.5l-2.3-1.3l-0.9,1.5
		c-0.7-0.3-1.5-0.5-2.4-0.6v-1.8h-2.6V79c-0.8,0.1-1.6,0.3-2.3,0.6l-1-1.7l-2.3,1.3l1,1.7c-0.6,0.5-1.2,1.1-1.6,1.7l-1.7-1L97.3,84
		l1.7,1c-0.3,0.7-0.5,1.5-0.6,2.2h-2v2.6h2c0.1,0.8,0.3,1.5,0.6,2.2l-1.7,1l1.3,2.3l1.7-1c0.5,0.6,1,1.2,1.6,1.7l-1,1.7l2.3,1.3
		l1-1.7c0.7,0.3,1.5,0.5,2.3,0.6v1.9h2.6v-1.8c0.8-0.1,1.6-0.3,2.4-0.6l0.9,1.5l2.3-1.3l-0.9-1.5c0.7-0.5,1.3-1.1,1.8-1.7l1.5,0.9
		l1.3-2.3l-1.5-0.8c0.3-0.8,0.5-1.6,0.6-2.4h1.7v-2.6H117.5z M107.8,94.2c-3.1,0-5.7-2.6-5.7-5.7c0-3.1,2.6-5.7,5.7-5.7
		s5.7,2.6,5.7,5.7C113.5,91.7,111,94.2,107.8,94.2z M80.7,35.1h-1.8v10.5h1.8V35.1z M89.4,35.1h-1.8v10.5h1.8V35.1z M85.9,35.1h-3.5
		v10.5h3.5V35.1z M12.3,66.6H19c-2-2-3.2-4.8-3.2-7.9c0-6.3,5.1-11.4,11.4-11.4s11.4,5.1,11.4,11.4c0,3.1-1.2,5.8-3.2,7.9h69.8
		c1.9,0,3.5-1.6,3.5-3.5H121v-8.8h-12.3V24.5c0-1.9-1.6-3.5-3.5-3.5H94.7v26.3H77.2V21H12.3c-1.9,0-3.5,1.6-3.5,3.5v38.6
		C8.8,65.1,10.3,66.6,12.3,66.6z M107.8,86.4c-1.2,0-2.2,1-2.2,2.2c0,1.2,1,2.2,2.2,2.2c1.2,0,2.2-1,2.2-2.2
		C110,87.3,109,86.4,107.8,86.4z M29.2,84.8l1.5-0.8l-1.3-2.3l-1.5,0.9c-0.5-0.6-1.1-1.2-1.8-1.7l0.9-1.5L24.7,78l-0.9,1.5
		c-0.7-0.3-1.5-0.5-2.4-0.6v-1.8h-2.6V79c-0.8,0.1-1.6,0.3-2.3,0.6l-1-1.7l-2.3,1.3l1,1.7c-0.6,0.5-1.2,1.1-1.6,1.7l-1.7-1L9.6,84
		l1.7,1c-0.3,0.7-0.5,1.5-0.6,2.2h-2v2.6h2c0.1,0.8,0.3,1.5,0.6,2.2l-1.7,1l1.3,2.3l1.7-1c0.5,0.6,1,1.2,1.6,1.7l-1,1.7l2.3,1.3
		l1-1.7c0.7,0.3,1.5,0.5,2.3,0.6v1.9h2.6v-1.8c0.8-0.1,1.6-0.3,2.4-0.6l0.9,1.5l2.3-1.3l-0.9-1.5c0.7-0.5,1.3-1.1,1.8-1.7l1.5,0.9
		l1.3-2.3l-1.5-0.8c0.3-0.8,0.5-1.6,0.6-2.4h1.7v-2.6h-1.7C29.8,86.4,29.5,85.6,29.2,84.8z M20.2,94.2c-3.1,0-5.7-2.6-5.7-5.7
		c0-3.1,2.6-5.7,5.7-5.7s5.7,2.6,5.7,5.7C25.9,91.7,23.3,94.2,20.2,94.2z M109.4,70.1H18.6C8.3,70.1,0,78.4,0,88.5
		C0,98.7,8.3,107,18.6,107h90.7c10.3,0,18.6-8.2,18.6-18.4C128,78.4,119.7,70.1,109.4,70.1z M109.4,102.2H18.6
		c-7.6,0-13.8-6.1-13.8-13.6c0-7.5,6.2-13.6,13.8-13.6h90.7c7.6,0,13.8,6.1,13.8,13.6C123.1,96.1,117,102.2,109.4,102.2z M20.2,86.4
		c-1.2,0-2.2,1-2.2,2.2c0,1.2,1,2.2,2.2,2.2c1.2,0,2.2-1,2.2-2.2C22.4,87.3,21.4,86.4,20.2,86.4z M92.9,35.1h-1.8v10.5h1.8V35.1z"/>
</g>
</svg>
