<?xml version="1.0" encoding="utf-8"?>
<!-- Generator: Adobe Illustrator 22.0.0, SVG Export Plug-In . SVG Version: 6.00 Build 0)  -->
<svg version="1.1" id="Icon_Set" xmlns="http://www.w3.org/2000/svg" xmlns:xlink="http://www.w3.org/1999/xlink" x="0px" y="0px"
	 viewBox="0 0 64 64" style="enable-background:new 0 0 64 64;" xml:space="preserve">
<style type="text/css">
	.st0{fill:#40C4FF;}
	.st1{fill:#263238;}
	.st2{fill:#FFD740;}
	.st3{fill:#FF5252;}
	.st4{fill:#4DB6AC;}
	.st5{fill:#FFFFFF;}
	.st6{fill:#4FC3F7;}
	.st7{fill:#37474F;}
</style>
<g>
	<g>
		<path class="st1" d="M22.53,26.5c-0.276,0-0.5-0.224-0.5-0.5v-8c0-4.687,3.813-8.5,8.5-8.5s8.5,3.813,8.5,8.5v4.5h3V18
			c0-6.341-5.159-11.5-11.5-11.5s-11.5,5.159-11.5,11.5v8c0,0.276-0.224,0.5-0.5,0.5s-0.5-0.224-0.5-0.5v-8
			c0-6.893,5.607-12.5,12.5-12.5s12.5,5.607,12.5,12.5v5c0,0.276-0.224,0.5-0.5,0.5h-4c-0.276,0-0.5-0.224-0.5-0.5v-5
			c0-4.136-3.364-7.5-7.5-7.5s-7.5,3.364-7.5,7.5v8C23.03,26.276,22.807,26.5,22.53,26.5z"/>
	</g>
	<g>
		<polygon class="st0" points="53.06,28 45.06,28 47.999,30.939 33.061,45.879 21.061,33.879 8,46.94 10.121,49.061 21.061,38.121 
			33.061,50.121 50.121,33.06 53.06,36 		"/>
		<path class="st1" d="M33.061,50.621c-0.133,0-0.26-0.053-0.354-0.146L21.061,38.828L10.475,49.414
			c-0.195,0.195-0.512,0.195-0.707,0l-2.121-2.121c-0.195-0.195-0.195-0.512,0-0.707l13.061-13.061c0.195-0.195,0.512-0.195,0.707,0
			l11.646,11.646l14.231-14.232l-2.585-2.586c-0.143-0.143-0.186-0.358-0.108-0.545s0.26-0.309,0.462-0.309h8
			c0.276,0,0.5,0.224,0.5,0.5v8c0,0.202-0.122,0.385-0.309,0.462c-0.185,0.078-0.401,0.035-0.545-0.108l-2.587-2.586L33.414,50.475
			C33.32,50.568,33.193,50.621,33.061,50.621z M21.061,37.621c0.128,0,0.256,0.049,0.354,0.146l11.646,11.646l16.706-16.707
			c0.195-0.195,0.512-0.195,0.707,0l2.087,2.086V28.5h-6.293l2.085,2.086c0.195,0.195,0.195,0.512,0,0.707L33.414,46.232
			c-0.188,0.188-0.52,0.188-0.707,0L21.061,34.586L8.707,46.939l1.414,1.414l10.586-10.586
			C20.805,37.67,20.933,37.621,21.061,37.621z"/>
	</g>
	<g>
		<path class="st1" d="M13.53,39.081c-0.276,0-0.5-0.224-0.5-0.5V30.5c0-1.654,1.346-3,3-3h27.052c0.276,0,0.5,0.224,0.5,0.5
			s-0.224,0.5-0.5,0.5H16.03c-1.103,0-2,0.897-2,2v8.081C14.03,38.857,13.807,39.081,13.53,39.081z"/>
	</g>
	<g>
		<path class="st1" d="M47.53,44.5c-0.276,0-0.5-0.224-0.5-0.5v-5.521c0-0.276,0.224-0.5,0.5-0.5s0.5,0.224,0.5,0.5V44
			C48.03,44.276,47.807,44.5,47.53,44.5z"/>
	</g>
	<g>
		<path class="st1" d="M45.03,58.5h-29c-1.654,0-3-1.346-3-3v-7.021c0-0.276,0.224-0.5,0.5-0.5s0.5,0.224,0.5,0.5V55.5
			c0,1.103,0.897,2,2,2h29c1.103,0,2-0.897,2-2V52c0-0.276,0.224-0.5,0.5-0.5s0.5,0.224,0.5,0.5v3.5
			C48.03,57.154,46.685,58.5,45.03,58.5z"/>
	</g>
	<g>
		<path class="st1" d="M55.061,21h-4c-0.276,0-0.5-0.224-0.5-0.5s0.224-0.5,0.5-0.5h4c0.276,0,0.5,0.224,0.5,0.5
			S55.337,21,55.061,21z"/>
	</g>
	<g>
		<path class="st1" d="M53.061,23c-0.276,0-0.5-0.224-0.5-0.5v-4c0-0.276,0.224-0.5,0.5-0.5s0.5,0.224,0.5,0.5v4
			C53.561,22.776,53.337,23,53.061,23z"/>
	</g>
	<g>
		<path class="st1" d="M60.561,26.5h-4c-0.276,0-0.5-0.224-0.5-0.5s0.224-0.5,0.5-0.5h4c0.276,0,0.5,0.224,0.5,0.5
			S60.837,26.5,60.561,26.5z"/>
	</g>
	<g>
		<path class="st1" d="M58.561,28.5c-0.276,0-0.5-0.224-0.5-0.5v-4c0-0.276,0.224-0.5,0.5-0.5s0.5,0.224,0.5,0.5v4
			C59.061,28.276,58.837,28.5,58.561,28.5z"/>
	</g>
	<g>
		<path class="st2" d="M59.5,45.5c-0.365,0-0.71,0.083-1.022,0.223c0.007-0.075,0.022-0.147,0.022-0.223c0-1.381-1.119-2.5-2.5-2.5
			c-1.381,0-2.5,1.119-2.5,2.5c0,0.171,0.018,0.338,0.05,0.5H39.5v7h5v-3h9.05c-0.033,0.162-0.05,0.329-0.05,0.5
			c0,1.381,1.119,2.5,2.5,2.5c1.381,0,2.5-1.119,2.5-2.5c0-0.076-0.016-0.148-0.022-0.223C58.79,50.417,59.135,50.5,59.5,50.5
			c1.381,0,2.5-1.119,2.5-2.5C62,46.619,60.881,45.5,59.5,45.5z"/>
		<path class="st1" d="M56,53.5c-1.654,0-3-1.346-3-3h-8V53c0,0.276-0.224,0.5-0.5,0.5h-5c-0.276,0-0.5-0.224-0.5-0.5v-7
			c0-0.276,0.224-0.5,0.5-0.5H53c0-1.654,1.346-3,3-3c1.501,0,2.748,1.107,2.966,2.549C59.142,45.017,59.32,45,59.5,45
			c1.654,0,3,1.346,3,3s-1.346,3-3,3c-0.18,0-0.358-0.017-0.534-0.049C58.748,52.392,57.501,53.5,56,53.5z M44.5,49.5h9.051
			c0.15,0,0.292,0.067,0.388,0.184c0.095,0.116,0.132,0.27,0.103,0.417C54.014,50.231,54,50.366,54,50.5c0,1.103,0.897,2,2,2
			s2-0.897,2-2c-0.001-0.007-0.02-0.17-0.021-0.177c-0.017-0.177,0.062-0.35,0.208-0.453c0.145-0.104,0.334-0.121,0.495-0.049
			C58.946,49.939,59.221,50,59.5,50c1.103,0,2-0.897,2-2s-0.897-2-2-2c-0.279,0-0.554,0.061-0.816,0.179
			c-0.16,0.074-0.352,0.056-0.496-0.048c-0.145-0.103-0.224-0.275-0.208-0.452c0.001-0.008,0.012-0.096,0.013-0.103
			C58,44.397,57.103,43.5,56,43.5s-2,0.897-2,2c0,0.136,0.014,0.267,0.041,0.399c0.029,0.147-0.008,0.301-0.103,0.417
			c-0.096,0.116-0.237,0.184-0.388,0.184H40v6h4V50C44,49.724,44.224,49.5,44.5,49.5z"/>
	</g>
	<g>
		<path class="st1" d="M44.5,50.5h-5c-0.276,0-0.5-0.224-0.5-0.5s0.224-0.5,0.5-0.5h5c0.276,0,0.5,0.224,0.5,0.5
			S44.776,50.5,44.5,50.5z"/>
	</g>
	<g>
		<path class="st1" d="M56,50c-0.276,0-0.5-0.224-0.5-0.5v-3c0-0.276,0.224-0.5,0.5-0.5s0.5,0.224,0.5,0.5v3
			C56.5,49.776,56.276,50,56,50z"/>
	</g>
	<g>
		<path class="st1" d="M15.192,24.5h-10c-0.276,0-0.5-0.224-0.5-0.5s0.224-0.5,0.5-0.5h10c0.276,0,0.5,0.224,0.5,0.5
			S15.469,24.5,15.192,24.5z"/>
	</g>
	<g>
		<path class="st1" d="M3,24.5H2c-0.276,0-0.5-0.224-0.5-0.5s0.224-0.5,0.5-0.5h1c0.276,0,0.5,0.224,0.5,0.5S3.276,24.5,3,24.5z"/>
	</g>
</g>
</svg>
