<?xml version="1.0" encoding="iso-8859-1"?>
<!-- Generator: Adobe Illustrator 21.0.2, SVG Export Plug-In . SVG Version: 6.00 Build 0)  -->
<svg version="1.1" xmlns="http://www.w3.org/2000/svg" xmlns:xlink="http://www.w3.org/1999/xlink" x="0px" y="0px"
	 viewBox="0 0 64 64" style="enable-background:new 0 0 64 64;" xml:space="preserve">
<g id="spinning_top">
</g>
<g id="boat">
</g>
<g id="rocking_horse">
</g>
<g id="truck">
</g>
<g id="shirt">
</g>
<g id="gameboy">
</g>
<g id="castle">
</g>
<g id="train">
</g>
<g id="baby_mobile">
</g>
<g id="car">
</g>
<g id="duck">
</g>
<g id="balloon">
</g>
<g id="piano">
</g>
<g id="robot">
	<g>
		<path d="M32.0004,12.4489c0.8397,1.0564,2.1245,1.7484,3.5812,1.7484c2.5239,0,4.5776-2.043,4.5776-4.5537
			s-2.0537-4.5537-4.5776-4.5537c-1.4567,0-2.7415,0.692-3.5812,1.7484c-0.8392-1.0564-2.1229-1.7484-3.5785-1.7484
			c-2.5259,0-4.5811,2.043-4.5811,4.5537s2.0552,4.5537,4.5811,4.5537C29.8774,14.1973,31.1612,13.5052,32.0004,12.4489z
			 M35.5815,7.0898c1.4214,0,2.5776,1.1455,2.5776,2.5537s-1.1563,2.5537-2.5776,2.5537C34.1582,12.1973,33,11.0518,33,9.6436
			S34.1582,7.0898,35.5815,7.0898z M25.8408,9.6436c0-1.4082,1.1577-2.5537,2.5811-2.5537C29.8433,7.0898,31,8.2354,31,9.6436
			s-1.1567,2.5537-2.5781,2.5537C26.9985,12.1973,25.8408,11.0518,25.8408,9.6436z"/>
		<path d="M52.4893,22.7793h-5.0125c-0.075-1.1664-1.0378-2.0952-2.2229-2.0952h-6.5396v-2.4716
			c2.5186-0.3535,4.6234-2.012,5.5975-4.2745h2.6223c1.7808,0,3.2295-1.4487,3.2295-3.23V8.3193
			c0-1.7808-1.4487-3.2295-3.2295-3.2295h-2.748C43.0278,2.6754,40.5661,1,37.7144,1H26.2856c-2.8,0-5.2246,1.6147-6.4083,3.9585
			h-2.8114c-1.7788,0-3.2261,1.4487-3.2261,3.2295v2.3921c0,1.7793,1.4473,3.2266,3.2261,3.2266h2.5697
			c0.9485,2.3289,3.0839,4.0464,5.65,4.407v2.4705h-6.5396c-1.1851,0-2.1479,0.9288-2.2229,2.0952h-5.0125
			c-2.8389,0-5.1484,2.3096-5.1484,5.1484v2.686c0,1.3579,1.1045,2.4624,2.4624,2.4624h3.0518v7.0106
			c-0.7327,0.3934-1.2378,1.158-1.2378,2.046v4.3213c0,1.2852,1.0459,2.3311,2.3311,2.3311h4.4453
			c1.2852,0,2.3311-1.0459,2.3311-2.3311v-2.0596h1.3843v11.7729c-1.4543,0.4222-2.5269,1.7518-2.5269,3.3404v1.8906
			c0,0.8828,0.7202,1.6016,1.605,1.6016h23.5796c0.8867,0,1.6084-0.7217,1.6084-1.6084v-1.8838
			c0-1.5886-1.0726-2.9182-2.5269-3.3404V44.3945h1.3843v2.0596c0,1.2852,1.0459,2.3311,2.3311,2.3311h4.4453
			c1.2852,0,2.3311-1.0459,2.3311-2.3311v-4.3213c0-0.8881-0.5051-1.6526-1.2378-2.046v-7.0106h3.0518
			c1.3579,0,2.4624-1.1045,2.4624-2.4624v-2.686C57.6377,25.0889,55.3281,22.7793,52.4893,22.7793z M19.14,11.8066h-2.0741
			c-0.6763,0-1.2261-0.5503-1.2261-1.2266V8.188c0-0.6777,0.5498-1.2295,1.2261-1.2295h2.1507
			c-0.0687,0.3982-0.1121,0.8051-0.1121,1.2227v2.9248C19.1045,11.3425,19.1176,11.5759,19.14,11.8066z M44.813,7.0898h2.1211
			c0.6777,0,1.2295,0.5518,1.2295,1.2295v2.3887c0,0.6782-0.5518,1.23-1.2295,1.23h-2.0864c0.0018-0.0152,0.001-0.0308,0.0026-0.046
			c0.0283-0.2584,0.0452-0.5202,0.0452-0.7861V8.1812c0-0.3294-0.0302-0.6512-0.0733-0.9691
			C44.8168,7.1718,44.8191,7.13,44.813,7.0898z M21.3399,12.5676c-0.0048-0.0193,0.002-0.0392-0.004-0.0583
			c-0.0096-0.0311-0.0309-0.0629-0.0434-0.0941c-0.1105-0.4207-0.188-0.8542-0.188-1.3092V8.1812
			C21.1045,5.3242,23.4287,3,26.2856,3h11.4287c2.3995,0,4.4043,1.6476,4.9908,3.8653c0.0306,0.1146,0.0696,0.2268,0.092,0.3436
			c0.0603,0.3156,0.0983,0.6393,0.0983,0.9723v2.9248c0,0.3216-0.0386,0.6335-0.0949,0.939
			c-0.0166,0.0906-0.0402,0.1794-0.0616,0.2688c-0.5473,2.2755-2.5851,3.9767-5.0247,3.9767H26.2856
			C23.9393,16.2905,21.9753,14.7119,21.3399,12.5676z M27.2856,18.2905h9.4287v2.3936h-9.4287V18.2905z M8.3623,30.6138v-2.686
			c0-1.7358,1.4126-3.1484,3.1484-3.1484h4.998v6.2969h-3.6323H8.8247C8.5742,31.0762,8.3623,30.8643,8.3623,30.6138z
			 M16.5088,33.0762v6.7256h-2.6323v-6.7256H16.5088z M17.7461,46.4541c0,0.1797-0.1514,0.3311-0.3311,0.3311h-4.4453
			c-0.1797,0-0.3311-0.1514-0.3311-0.3311v-4.3213c0-0.1797,0.1514-0.3311,0.3311-0.3311h4.4453
			c0.1797,0,0.3311,0.1514,0.3311,0.3311V46.4541z M31,56.0146h-7.8696V44.3945H31V56.0146z M20.6035,59.5078
			c0-0.8232,0.6694-1.4932,1.4922-1.4932h0.0347H31V61H20.6035V59.5078z M43.3965,59.5078V61H33v-2.9854h8.8696h0.0347
			C42.7271,58.0146,43.3965,58.6846,43.3965,59.5078z M40.8696,56.0146H33V44.3945h7.8696V56.0146z M19.7461,42.3945v-0.2617
			c0-0.8879-0.5049-1.6523-1.2373-2.0458V22.9219c0-0.1289,0.1089-0.2378,0.2373-0.2378h26.5078
			c0.1284,0,0.2373,0.1089,0.2373,0.2378v17.1652c-0.7324,0.3935-1.2373,1.1579-1.2373,2.0457v0.2617H19.7461z M51.3613,46.4541
			c0,0.1797-0.1514,0.3311-0.3311,0.3311H46.585c-0.1797,0-0.3311-0.1514-0.3311-0.3311v-4.3213
			c0-0.1797,0.1514-0.3311,0.3311-0.3311h4.4453c0.1797,0,0.3311,0.1514,0.3311,0.3311V46.4541z M50.1235,39.8018h-2.6323v-6.7256
			h2.6323V39.8018z M55.6377,30.6138c0,0.2505-0.2119,0.4624-0.4624,0.4624h-4.0518h-3.6323v-6.2969h4.998
			c1.7358,0,3.1484,1.4126,3.1484,3.1484V30.6138z"/>
		<path d="M38.6025,25.5898H25.3975c-2.353,0-4.2671,1.9141-4.2671,4.2666s1.9141,4.2666,4.2671,4.2666h13.2051
			c2.353,0,4.2671-1.9141,4.2671-4.2666S40.9556,25.5898,38.6025,25.5898z M38.6025,32.123H25.3975
			c-1.25,0-2.2671-1.0166-2.2671-2.2666s1.0171-2.2666,2.2671-2.2666h13.2051c1.25,0,2.2671,1.0166,2.2671,2.2666
			S39.8525,32.123,38.6025,32.123z"/>
	</g>
</g>
<g id="puzzle">
</g>
<g id="roller_skate">
</g>
<g id="house">
</g>
<g id="fidget_spinner">
</g>
<g id="rattel">
</g>
<g id="rc_car">
</g>
<g id="ball">
</g>
<g id="candy">
</g>
<g id="doll">
</g>
<g id="plane">
</g>
<g id="bloks">
</g>
</svg>
